{"title":"The.Losers.2010.DVDSCR.XviD-DUBBY","uid":5537658,"size":738284301,"categoryP":"video","categoryS":"movies","magnet":"?xt=urn:btih:ac4762c72c6182688678eb119108c27e40298912&amp;dn=The.Losers.2010.DVDSCR.XviD-DUBBY&amp;tr=udp%3A%2F%2Ftracker.openbittorrent.com%3A80&amp;tr=udp%3A%2F%2Fopen.demonii.com%3A1337&amp;tr=udp%3A%2F%2Ftracker.coppersurfer.tk%3A6969&amp;tr=udp%3A%2F%2Fexodus.desync.com%3A6969","seeders":0,"leechers":1,"uploader":"Emery2010","files":-1,"time":1273123186,"description":"\nThe.Losers.2010.DVDSCR.XviD-DUBBY\n\nIMDB: http://www.imdb.com/title/tt0480255/\nGenre: Action | Adventure | Crime | Mystery | Thriller \nRatings: 6.9/10   2,173 votes\n\nPlot: After being betrayed and left for dead, members of a CIA black\nops team root out those who targeted them for assassination...\n\nVideo Source: The Losers DVDSCR XViD - IMAGiNE\nAudio Source: The Losers DVDSCR XViD - IMAGiNE\nNew Folder:   The.Losers.2010.DVDSCR.XviD-DUBBY\n\n\nWork Done: Jesus, soon as i get the telesync all downloaded and start\nworking on it, imagine releases a dvdscreener, ok so here is what i did:\nbasically just added a little Red to it, thought it had a bit too much orange\ndidnt make hardly any changes, just encoded it to a smaller file size, enjoy!\n\nVideo\nID                               : 0\nFormat                           : MPEG-4 Visual\nFormat profile                   : Advanced Simple@L5\nFormat settings, BVOP            : Yes\nFormat settings, QPel            : No\nFormat settings, GMC             : No warppoints\nFormat settings, Matrix          : Default (H.263)\nMuxing mode                      : Packed bitstream\nCodec ID                         : XVID\nCodec ID/Hint                    : XviD\nDuration                         : 1h 36mn\nBit rate                         : 877 Kbps\nWidth                            : 640 pixels\nHeight                           : 272 pixels\nDisplay aspect ratio             : 2.35:1\nFrame rate                       : 23.976 fps\nResolution                       : 8 bits\nColorimetry                      : 4:2:0\nScan type                        : Progressive\nBits/(Pixel*Frame)               : 0.210\nStream size                      : 609 MiB (86%)\nWriting library                  : XviD 1.2.1 (UTC 2008-12-04)\n\nAudio\nID                               : 1\nFormat                           : MPEG Audio\nFormat version                   : Version 1\nFormat profile                   : Layer 3\nMode                             : Joint stereo\nFormat_Settings_ModeExtension    : MS Stereo\nCodec ID                         : 55\nCodec ID/Hint                    : MP3\nDuration                         : 1h 36mn\nBit rate mode                    : Constant\nBit rate                         : 128 Kbps\nChannel(s)                       : 2 channels\nSampling rate                    : 48.0 KHz\nStream size                      : 88.8 MiB (13%)\nAlignment                        : Split accross interleaves\nInterleave, duration             : 42 ms (1.00 video frame)\nInterleave, preload duration     : 500 ms\n\nGreets out to my friends at extratorrent, Noir, IMAGiNE, Campbellsoup,\nbadass, sam, and wrath and many others past and present.\n\nPlease note that i am looking for Cam sources, video and audio. Please\ncontact me if you have anything usefull thanks.","torrent":{"xt":"urn:btih:ac4762c72c6182688678eb119108c27e40298912","amp;dn":"The.Losers.2010.DVDSCR.XviD-DUBBY","amp;tr":["udp%3A%2F%2Ftracker.openbittorrent.com%3A80","udp%3A%2F%2Fopen.demonii.com%3A1337","udp%3A%2F%2Ftracker.coppersurfer.tk%3A6969","udp%3A%2F%2Fexodus.desync.com%3A6969"],"infoHash":"ac4762c72c6182688678eb119108c27e40298912","infoHashBuffer":{"type":"Buffer","data":[172,71,98,199,44,97,130,104,134,120,235,17,145,8,194,126,64,41,137,18]},"announce":[],"urlList":[]}}